HIERARCHY
ROOT Hips
{
    OFFSET   0.000000   0.000000   0.000000
    CHANNELS 6 Xposition Yposition Zposition Zrotation Xrotation Yrotation
    JOINT Chest
    {
        OFFSET   0.000000   8.007230   0.000000
        CHANNELS 3 Zrotation Xrotation Yrotation
        JOINT Chest2
        {
            OFFSET   0.000000  22.077100   0.000000
            CHANNELS 3 Zrotation Xrotation Yrotation
            JOINT Neck
            {
                OFFSET   0.000000  23.255100   0.000000
                CHANNELS 3 Zrotation Xrotation Yrotation
                JOINT Head
                {
                    OFFSET   0.000000  14.370100   1.956600
                    CHANNELS 3 Zrotation Xrotation Yrotation
                    End Site
                    {
                        OFFSET   0.000000  19.566000   0.000000
                    }
                }
            }
            JOINT LeftCollar
            {
                OFFSET   3.911900  19.017000  -0.467063
                CHANNELS 3 Zrotation Xrotation Yrotation
                JOINT LeftShoulder
                {
                    OFFSET  10.383700   0.000000   0.000000
                    CHANNELS 3 Zrotation Xrotation Yrotation
                    JOINT LeftElbow
                    {
                        OFFSET  26.662100   0.001193   0.000980
                        CHANNELS 3 Zrotation Xrotation Yrotation
                        JOINT LeftWrist
                        {
                            OFFSET  28.869000  -0.000059  -0.000082
                            CHANNELS 3 Zrotation Xrotation Yrotation
                            JOINT LeftFinger0
                            {
                                OFFSET   2.044650  -2.323450   3.252850
                                CHANNELS 3 Zrotation Xrotation Yrotation
                                JOINT LeftFinger01
                                {
                                    OFFSET   3.088130   0.000000   0.000000
                                    CHANNELS 3 Zrotation Xrotation Yrotation
                                    JOINT LeftFinger02
                                    {
                                        OFFSET   2.639460   0.000000   0.000000
                                        CHANNELS 3 Zrotation Xrotation Yrotation
                                        End Site
                                        {
                                            OFFSET   2.582190   0.000000   0.000000
                                        }
                                    }
                                }
                            }
                            JOINT LeftFinger1
                            {
                                OFFSET   8.364480   0.000000   3.252850
                                CHANNELS 3 Zrotation Xrotation Yrotation
                                JOINT LeftFinger11
                                {
                                    OFFSET   4.646930   0.000000   0.000000
                                    CHANNELS 3 Zrotation Xrotation Yrotation
                                    JOINT LeftFinger12
                                    {
                                        OFFSET   2.323470   0.000000   0.000000
                                        CHANNELS 3 Zrotation Xrotation Yrotation
                                        End Site
                                        {
                                            OFFSET   2.273050   0.000000   0.000000
                                        }
                                    }
                                }
                            }
                            JOINT LeftFinger2
                            {
                                OFFSET   8.364490   0.000016   1.078090
                                CHANNELS 3 Zrotation Xrotation Yrotation
                                JOINT LeftFinger21
                                {
                                    OFFSET   5.111610   0.000000   0.000000
                                    CHANNELS 3 Zrotation Xrotation Yrotation
                                    JOINT LeftFinger22
                                    {
                                        OFFSET   2.788150   0.000016   0.000000
                                        CHANNELS 3 Zrotation Xrotation Yrotation
                                        End Site
                                        {
                                            OFFSET   2.727660   0.000000   0.000000
                                        }
                                    }
                                }
                            }
                            JOINT LeftFinger3
                            {
                                OFFSET   7.899780   0.000015  -1.078090
                                CHANNELS 3 Zrotation Xrotation Yrotation
                                JOINT LeftFinger31
                                {
                                    OFFSET   4.646930   0.000000   0.000000
                                    CHANNELS 3 Zrotation Xrotation Yrotation
                                    JOINT LeftFinger32
                                    {
                                        OFFSET   2.323470   0.000000   0.000000
                                        CHANNELS 3 Zrotation Xrotation Yrotation
                                        End Site
                                        {
                                            OFFSET   2.273050   0.000000   0.000000
                                        }
                                    }
                                }
                            }
                            JOINT LeftFinger4
                            {
                                OFFSET   7.435090   0.000000  -3.252850
                                CHANNELS 3 Zrotation Xrotation Yrotation
                                JOINT LeftFinger41
                                {
                                    OFFSET   3.717550   0.000000   0.000000
                                    CHANNELS 3 Zrotation Xrotation Yrotation
                                    JOINT LeftFinger42
                                    {
                                        OFFSET   1.858770   0.000000   0.000000
                                        CHANNELS 3 Zrotation Xrotation Yrotation
                                        End Site
                                        {
                                            OFFSET   1.818440   0.000000   0.000000
                                        }
                                    }
                                }
                            }
                        }
                    }
                }
            }
            JOINT RightCollar
            {
                OFFSET  -3.911910  19.017000  -0.467062
                CHANNELS 3 Zrotation Xrotation Yrotation
                JOINT RightShoulder
                {
                    OFFSET -10.383700   0.000014   0.000000
                    CHANNELS 3 Zrotation Xrotation Yrotation
                    JOINT RightElbow
                    {
                        OFFSET -26.662100   0.001225   0.001091
                        CHANNELS 3 Zrotation Xrotation Yrotation
                        JOINT RightWrist
                        {
                            OFFSET -28.869000  -0.000020  -0.000085
                            CHANNELS 3 Zrotation Xrotation Yrotation
                            JOINT RightFinger0
                            {
                                OFFSET  -2.044650  -2.323490   3.252850
                                CHANNELS 3 Zrotation Xrotation Yrotation
                                JOINT RightFinger01
                                {
                                    OFFSET  -3.088130   0.000000   0.000000
                                    CHANNELS 3 Zrotation Xrotation Yrotation
                                    JOINT RightFinger02
                                    {
                                        OFFSET  -2.639460   0.000000   0.000000
                                        CHANNELS 3 Zrotation Xrotation Yrotation
                                        End Site
                                        {
                                            OFFSET  -2.582190   0.000000   0.000000
                                        }
                                    }
                                }
                            }
                            JOINT RightFinger1
                            {
                                OFFSET  -8.364480   0.000000   3.252850
                                CHANNELS 3 Zrotation Xrotation Yrotation
                                JOINT RightFinger11
                                {
                                    OFFSET  -4.646930   0.000000   0.000000
                                    CHANNELS 3 Zrotation Xrotation Yrotation
                                    JOINT RightFinger12
                                    {
                                        OFFSET  -2.323470   0.000000   0.000000
                                        CHANNELS 3 Zrotation Xrotation Yrotation
                                        End Site
                                        {
                                            OFFSET  -2.273050   0.000000   0.000000
                                        }
                                    }
                                }
                            }
                            JOINT RightFinger2
                            {
                                OFFSET  -8.364480   0.000000   1.078090
                                CHANNELS 3 Zrotation Xrotation Yrotation
                                JOINT RightFinger21
                                {
                                    OFFSET  -5.111620   0.000000   0.000000
                                    CHANNELS 3 Zrotation Xrotation Yrotation
                                    JOINT RightFinger22
                                    {
                                        OFFSET  -2.788160   0.000000   0.000000
                                        CHANNELS 3 Zrotation Xrotation Yrotation
                                        End Site
                                        {
                                            OFFSET  -2.727660   0.000000   0.000000
                                        }
                                    }
                                }
                            }
                            JOINT RightFinger3
                            {
                                OFFSET  -7.899780   0.000000  -1.078090
                                CHANNELS 3 Zrotation Xrotation Yrotation
                                JOINT RightFinger31
                                {
                                    OFFSET  -4.646930   0.000000   0.000000
                                    CHANNELS 3 Zrotation Xrotation Yrotation
                                    JOINT RightFinger32
                                    {
                                        OFFSET  -2.323470   0.000000   0.000000
                                        CHANNELS 3 Zrotation Xrotation Yrotation
                                        End Site
                                        {
                                            OFFSET  -2.273050   0.000000   0.000000
                                        }
                                    }
                                }
                            }
                            JOINT RightFinger4
                            {
                                OFFSET  -7.435090   0.000000  -3.252850
                                CHANNELS 3 Zrotation Xrotation Yrotation
                                JOINT RightFinger41
                                {
                                    OFFSET  -3.717550   0.000000   0.000000
                                    CHANNELS 3 Zrotation Xrotation Yrotation
                                    JOINT RightFinger42
                                    {
                                        OFFSET  -1.858760   0.000000   0.000000
                                        CHANNELS 3 Zrotation Xrotation Yrotation
                                        End Site
                                        {
                                            OFFSET  -1.818440   0.000000   0.000000
                                        }
                                    }
                                }
                            }
                        }
                    }
                }
            }
        }
    }
    JOINT LeftHip
    {
        OFFSET   9.783030   0.000000   0.000000
        CHANNELS 3 Zrotation Xrotation Yrotation
        JOINT LeftKnee
        {
            OFFSET   0.000063 -41.789100   0.000608
            CHANNELS 3 Zrotation Xrotation Yrotation
            JOINT LeftAnkle
            {
                OFFSET   0.000048 -41.133200  -0.000184
                CHANNELS 3 Zrotation Xrotation Yrotation
                JOINT LeftToe
                {
                    OFFSET   0.000000  -6.358960  14.674500
                    CHANNELS 3 Zrotation Xrotation Yrotation
                    End Site
                    {
                        OFFSET   0.000000   0.000000   3.913200
                    }
                }
            }
        }
    }
    JOINT RightHip
    {
        OFFSET  -9.783030   0.000000   0.000000
        CHANNELS 3 Zrotation Xrotation Yrotation
        JOINT RightKnee
        {
            OFFSET   0.000071 -41.789100   0.001239
            CHANNELS 3 Zrotation Xrotation Yrotation
            JOINT RightAnkle
            {
                OFFSET   0.000037 -41.133200  -0.000166
                CHANNELS 3 Zrotation Xrotation Yrotation
                JOINT RightToe
                {
                    OFFSET   0.000000  -6.358960  14.674500
                    CHANNELS 3 Zrotation Xrotation Yrotation
                    End Site
                    {
                        OFFSET   0.000000   0.000000   3.913200
                    }
                }
            }
        }
    }
}
MOTION
Frames: 5
Frame Time:   0.016667
 -2.170160  89.473300  -0.973846  -1.652730  -9.491160 -11.285600   4.085500   8.261950  -4.683350   8.982610  16.134000 -10.109300   4.825640   4.710600  -0.397079   8.076630   9.344330 -20.329200  -7.295630   2.065910  11.589900 -76.722400  20.326800  -9.748750  -2.658580  -0.733534 -18.023800  11.810200   0.033259  -5.128250  38.530600  30.576100 -54.472300 -32.195800   0.005332   0.003437 -11.097900   0.004846  -0.029357 -33.287700  -1.290570   1.964660 -27.253500   0.005230   0.000959 -19.077400   0.004665  -0.005187 -30.664200  -3.726550   6.262090 -46.302000   0.002731   0.002040 -30.837100   0.003936   0.003270 -28.493300  -3.489960   6.398720 -38.813900   0.003957   0.004185 -25.850000   0.003446   0.004769 -35.739600  -5.673150   7.821640 -54.191700  -0.004690   0.003265 -36.091700   0.003094   0.006678   7.025720   3.753850   9.999920  61.569900 -17.273500  21.435800  -0.862885 -10.179100  23.960100   8.378840 -63.566600  28.270400 -44.673900  31.768700  69.289900   8.606890  -0.000511   0.000137  -0.696546  -0.000071   0.006134  13.360300   0.985255   4.141000  10.960000   0.008278   0.013569   7.671960   0.007716   0.000687  14.581800   0.781957   3.002890  14.601700   0.000117  -0.000141   9.724780   0.013945   0.004667  13.028700   0.702057   3.030870  13.046700   0.000000  -0.000908   8.689110   0.000000  -0.001229  20.936800   1.112750   2.905450  31.446700   0.000419  -0.002464  20.943500   0.010342  -0.012071   2.619020  11.198600   2.356450  -0.691323   3.561150  22.338700  -2.883290  -4.458550   1.521610   0.000000   0.000000   0.000000  -1.627360  11.251500  -2.745300   1.745450  -0.021673  -7.756480   1.007840  -1.503510  12.994000   0.000000   0.000000  -0.000000
 -2.205070  89.473100  -0.956860  -1.603190  -9.466260 -11.122900   4.068820   8.214200  -4.682870   8.942980  16.040400 -10.101000   4.650500   4.651620  -0.377908   7.779320   9.243750 -19.123500  -7.310810   2.146960  11.696500 -76.729700  20.200700  -9.785600  -2.666590  -0.677133 -17.959200  11.820100   0.073739  -5.123530  38.530600  30.552600 -54.426600 -32.183500   0.005324   0.003408 -11.091800   0.004847  -0.019641 -33.265300  -1.287870   1.962320 -27.235200   0.005228   0.000959 -19.064600   0.004665  -0.005182 -30.651800  -3.726550   6.261410 -46.283200   0.002758   0.001925 -30.824600   0.003882   0.003274 -28.493000  -3.489780   6.398200 -38.786200   0.003959   0.004184 -25.831600   0.003443   0.004772 -35.717600  -5.665200   7.817120 -54.157600  -0.004119   0.003263 -36.069000   0.003093   0.006674   6.930570   3.865230  10.025300  61.631700 -17.575700  21.216600  -0.999220 -10.434700  24.063200   8.053410 -63.076400  27.853200 -44.622100  31.783100  69.363900   8.920240  -0.000537   0.000123  -0.539870  -0.000073   0.006145  13.444700   0.977429   4.089350  11.028500   0.008289   0.013850   7.719930   0.007700   0.000682  14.665000   0.768189   2.933040  14.684200   0.000057  -0.000039   9.779710   0.014029   0.004819  13.107400   0.689284   2.961420  13.124700  -0.000034  -0.000855   8.741080  -0.000000  -0.001195  21.022400   1.090920   2.837710  31.573600   0.000405  -0.002463  21.028000   0.010455  -0.012105   2.626000  11.152100   2.309530  -0.681372   3.586380  22.296700  -2.913150  -4.456600   1.453490  -0.000000   0.000000  -0.000000  -1.633640  11.246000  -2.768560   1.766540  -0.004522  -7.844620   1.037140  -1.565540  12.948000  -0.000000   0.000000   0.000000
 -2.240710  89.472800  -0.939388  -1.548340  -9.438650 -10.931400   4.049830   8.161620  -4.682310   8.897900  15.937500 -10.090700   4.466430   4.584910  -0.357726   7.467650   9.126950 -17.899000  -7.325800   2.220500  11.807300 -76.747700  20.063600  -9.798410  -2.664850  -0.602835 -17.901500  11.839900   0.097088  -5.118900  38.528300  30.532300 -54.369600 -32.171500   0.005316   0.003380 -11.085800   0.004850  -0.008763 -33.250800  -1.286970   1.961980 -27.223300   0.005226   0.000956 -19.056300   0.004665  -0.005175 -30.643200  -3.726550   6.260690 -46.270100   0.002786   0.001782 -30.815900   0.003829   0.003278 -28.492800  -3.489550   6.397630 -38.766600   0.003960   0.004181 -25.818600   0.003440   0.004775 -35.701400  -5.661170   7.816290 -54.132700  -0.003566   0.003263 -36.052400   0.003092   0.006669   6.827830   3.973990  10.062100  61.737900 -17.922400  21.006600  -1.158790 -10.646200  24.129700   7.763560 -62.593900  27.455700 -44.582200  31.795800  69.422200   9.194440  -0.000563   0.000115  -0.402780  -0.000075   0.006156  13.519300   0.961645   3.992750  11.088300   0.008303   0.014126   7.761820   0.007682   0.000677  14.738600   0.740943   2.813600  14.756300   0.000000   0.000067   9.827710   0.014110   0.004968  13.173100   0.662554   2.827540  13.188800  -0.000086  -0.000802   8.783750   0.000000  -0.001162  21.099400   1.046330   2.709200  31.685300   0.000393  -0.002462  21.102400   0.010566  -0.012135   2.633730  11.096400   2.257940  -0.669491   3.616890  22.244000  -2.946050  -4.453500   1.373520  -0.000000   0.000000  -0.000000  -1.635030  11.240400  -2.809470   1.783130   0.012621  -7.937930   1.062610  -1.629480  12.891600  -0.000000   0.000000   0.000000
 -2.275780  89.472600  -0.918245  -1.487990  -9.407400 -10.711300   4.027690   8.100530  -4.680310   8.845220  15.818100 -10.076000   4.276540   4.518300  -0.337400   7.147810   9.006310 -16.690400  -7.330400   2.292560  11.920300 -76.788200  19.920000  -9.786300  -2.643410  -0.501385 -17.845300  11.870500   0.078439  -5.108480  38.516300  30.497900 -54.315500 -32.172200   0.005317   0.003380 -11.086100   0.004854  -0.005815 -33.254200  -1.291150   1.968110 -27.226300   0.005229   0.000929 -19.058400   0.004664  -0.005170 -30.648700  -3.726550   6.259970 -46.278400   0.002812   0.001616 -30.821400   0.003775   0.003277 -28.492600  -3.489290   6.397040 -38.772100   0.003957   0.004177 -25.822200   0.003443   0.004774 -35.702200  -5.665080   7.821390 -54.134800  -0.003026   0.003269 -36.053700   0.003094   0.006662   6.716930   4.075530  10.082100  61.879500 -18.322700  20.811300  -1.321150 -10.769000  24.123600   7.576150 -62.147600  27.132000 -44.544600  31.828600  69.506100   9.442160  -0.000583   0.000118  -0.278924  -0.000075   0.006167  13.601100   0.941575   3.885470  11.154000   0.008326   0.014394   7.807780   0.007661   0.000672  14.815700   0.708015   2.674310  14.831700  -0.000039   0.000156   9.877920   0.014164   0.005106  13.235700   0.627847   2.666410  13.249600  -0.000114  -0.000742   8.824220  -0.000033  -0.001130  21.186300   0.990666   2.553900  31.810700   0.000375  -0.002450  21.185900   0.010681  -0.012170   2.638180  11.030400   2.216530  -0.651195   3.652310  22.172000  -2.982360  -4.447950   1.277380  -0.000000   0.000000   0.000000  -1.634540  11.250600  -2.859410   1.795040   0.005666  -8.025150   1.074920  -1.680980  12.815600  -0.000000   0.000000   0.000000
 -2.310490  89.472300  -0.893985  -1.422000  -9.375980 -10.463500   4.001850   8.035260  -4.677120   8.784670  15.690700 -10.059000   4.075610   4.446990  -0.316352   6.809580   8.875580 -15.453600  -7.332640   2.355200  12.024700 -76.841200  19.768900  -9.757090  -2.613670  -0.399008 -17.788300  11.903500   0.053011  -5.095850  38.502600  30.477400 -54.279100 -32.176800   0.005319   0.003380 -11.088400   0.004857  -0.005386 -33.263100  -1.299420   1.980060 -27.233700   0.005232   0.000863 -19.063600   0.004663  -0.005168 -30.658800  -3.726560   6.259300 -46.293600   0.002838   0.001427 -30.831500   0.003721   0.003275 -28.492500  -3.489000   6.396380 -38.787400   0.003953   0.004174 -25.832400   0.003447   0.004771 -35.707000  -5.674020   7.832200 -54.143700  -0.002499   0.003275 -36.059700   0.003095   0.006658   6.604810   4.163910  10.096500  62.029800 -18.730100  20.614700  -1.467760 -10.874400  24.062400   7.354240 -61.703700  26.776600 -44.538500  31.870500  69.589000   9.652860  -0.000603   0.000136  -0.173580  -0.000077   0.006180  13.675300   0.921592   3.781450  11.213500   0.008349   0.014653   7.849440   0.007642   0.000670  14.884200   0.674183   2.533990  14.898600  -0.000073   0.000241   9.922460   0.014214   0.005237  13.291700   0.590408   2.495930  13.303700  -0.000142  -0.000682   8.860280  -0.000088  -0.001100  21.256100   0.930604   2.389850  31.912000   0.000354  -0.002433  21.253400   0.010798  -0.012203   2.639830  10.958900   2.180890  -0.628507   3.692640  22.081800  -3.021810  -4.442420   1.167230   0.000000   0.000000   0.000000  -1.634200  11.266400  -2.910120   1.806650  -0.001287  -8.122300   1.084250  -1.733070  12.723500  -0.000000   0.000000   0.000000
